<svg version="1.1" id="Layer_1" xmlns="http://www.w3.org/2000/svg" xmlns:xlink="http://www.w3.org/1999/xlink" x="0px" y="0px"
	 width="100%" viewBox="0 0 1042 1043" enable-background="new 0 0 1042 1043" xml:space="preserve">
<path fill="#FFFFFF" opacity="1.000000" stroke="none" 
	d="
M1043.000000,367.000000 
	C1043.000000,592.972961 1043.000000,818.445984 1043.000000,1043.959473 
	C695.735291,1043.959473 348.470581,1043.959473 1.102943,1043.959473 
	C1.102943,696.443665 1.102943,348.887238 1.102943,1.165421 
	C348.333282,1.165421 695.666626,1.165421 1043.000000,1.165421 
	C1043.000000,122.862839 1043.000000,244.681427 1043.000000,367.000000 
M857.168640,245.331482 
	C800.604858,188.768539 744.027832,132.218735 687.522583,75.597420 
	C685.115540,73.185478 682.750610,72.077919 679.274414,72.079323 
	C478.625519,72.160393 277.976624,72.151642 77.327713,72.151649 
	C75.584618,72.151649 73.841515,72.151649 71.837555,72.151649 
	C71.837555,74.614357 71.837555,76.270958 71.837555,77.927559 
	C71.837555,279.576355 71.846184,481.225159 71.765472,682.873962 
	C71.764091,686.327454 72.780113,688.719055 75.206215,691.142212 
	C168.003586,783.825989 260.748199,876.562561 353.421906,969.369995 
	C356.010132,971.961853 358.559204,972.920105 362.163208,972.918701 
	C563.478699,972.839539 764.794189,972.848328 966.109680,972.848328 
	C967.899963,972.848328 969.690186,972.848328 972.002930,972.848328 
	C972.002930,970.593994 972.002869,968.811218 972.002869,967.028442 
	C972.002869,766.379517 971.991272,565.730652 972.093018,365.081757 
	C972.094910,361.380676 970.885742,358.952057 968.364746,356.439972 
	C931.414856,319.621826 894.552185,282.716187 857.168640,245.331482 
z"/>
<path fill="#FF9A02" opacity="1.000000" stroke="none" 
	d="
M857.418701,245.581451 
	C894.552185,282.716187 931.414856,319.621826 968.364746,356.439972 
	C970.885742,358.952057 972.094910,361.380676 972.093018,365.081757 
	C971.991272,565.730652 972.002869,766.379517 972.002869,967.028442 
	C972.002869,968.811218 972.002930,970.593994 972.002930,972.848328 
	C969.690186,972.848328 967.899963,972.848328 966.109680,972.848328 
	C764.794189,972.848328 563.478699,972.839539 362.163208,972.918701 
	C358.559204,972.920105 356.010132,971.961853 353.421906,969.369995 
	C260.748199,876.562561 168.003586,783.825989 75.206215,691.142212 
	C72.780113,688.719055 71.764091,686.327454 71.765472,682.873962 
	C71.846184,481.225159 71.837555,279.576355 71.837555,77.927559 
	C71.837555,76.270958 71.837555,74.614357 71.837555,72.151649 
	C73.841515,72.151649 75.584618,72.151649 77.327713,72.151649 
	C277.976624,72.151642 478.625519,72.160393 679.274414,72.079323 
	C682.750610,72.077919 685.115540,73.185478 687.522583,75.597420 
	C744.027832,132.218735 800.604858,188.768539 857.418701,245.581451 
M90.847733,446.500000 
	C90.847740,522.659546 90.874168,598.819092 90.766510,674.978455 
	C90.761345,678.627869 91.845062,681.120239 94.401840,683.673462 
	C183.312408,772.460327 272.160706,861.309631 360.952393,950.215332 
	C363.489777,952.756042 365.960388,953.920654 369.637085,953.918884 
	C562.279968,953.826294 754.922852,953.837097 947.565735,953.837097 
	C949.309143,953.837097 951.052490,953.837158 952.997498,953.837158 
	C952.997498,951.709717 952.997498,950.382690 952.997498,949.055664 
	C952.997559,756.746094 953.008911,564.436462 952.870483,372.126953 
	C952.868713,369.675568 951.579834,366.602753 949.845215,364.864166 
	C859.921326,274.734070 769.872742,184.728348 679.914062,94.632980 
	C677.327026,92.042023 674.763916,91.091393 671.161194,91.092880 
	C479.684845,91.172081 288.208466,91.162888 96.732117,91.162895 
	C94.944977,91.162903 93.157837,91.162895 90.847672,91.162895 
	C90.847672,209.626373 90.847672,327.563171 90.847733,446.500000 
z"/>
<path fill="#FFFFFF" opacity="1.000000" stroke="none" 
	d="
M90.847702,446.000000 
	C90.847672,327.563171 90.847672,209.626373 90.847672,91.162895 
	C93.157837,91.162895 94.944977,91.162903 96.732117,91.162895 
	C288.208466,91.162888 479.684845,91.172081 671.161194,91.092880 
	C674.763916,91.091393 677.327026,92.042023 679.914062,94.632980 
	C769.872742,184.728348 859.921326,274.734070 949.845215,364.864166 
	C951.579834,366.602753 952.868713,369.675568 952.870483,372.126953 
	C953.008911,564.436462 952.997559,756.746094 952.997498,949.055664 
	C952.997498,950.382690 952.997498,951.709717 952.997498,953.837158 
	C951.052490,953.837158 949.309143,953.837097 947.565735,953.837097 
	C754.922852,953.837097 562.279968,953.826294 369.637085,953.918884 
	C365.960388,953.920654 363.489777,952.756042 360.952393,950.215332 
	C272.160706,861.309631 183.312408,772.460327 94.401840,683.673462 
	C91.845062,681.120239 90.761345,678.627869 90.766510,674.978455 
	C90.874168,598.819092 90.847740,522.659546 90.847702,446.000000 
M698.578857,733.198242 
	C699.398315,734.532227 700.430481,735.781189 701.003174,737.213867 
	C704.944885,747.075500 709.028503,756.892212 712.540100,766.907898 
	C713.796082,770.490112 716.006104,770.081726 718.646362,770.244629 
	C721.456299,770.418030 723.049561,769.733582 724.116333,766.760742 
	C727.925964,756.144653 732.107910,745.662354 736.118408,735.117798 
	C736.493896,734.130676 736.654236,733.061829 736.917175,732.020081 
	C733.730286,732.020081 730.948547,732.020081 728.029419,732.020081 
	C724.918030,741.428589 721.854492,750.692200 718.345459,761.303101 
	C715.237732,751.649475 712.647766,743.446228 709.917542,735.289917 
	C709.496155,734.030884 708.434021,732.015930 707.662720,732.013428 
	C704.439758,732.002808 701.214722,732.626526 697.771057,732.061157 
	C693.155457,732.908997 688.539917,733.756836 683.924316,734.604736 
	C683.932617,735.110229 683.940979,735.615784 683.949280,736.121277 
	C683.376770,734.687744 682.804199,733.254150 682.366577,732.158325 
	C679.682129,732.158325 677.443298,732.158325 675.378235,732.158325 
	C675.378235,745.018433 675.378235,757.542908 675.378235,769.812866 
	C678.509033,769.812866 681.250305,769.812866 684.174377,769.812866 
	C684.174377,761.650024 684.353638,753.841125 684.090820,746.047058 
	C683.977295,742.681396 685.340027,741.011658 688.342041,740.538147 
	C691.556458,740.031189 694.820007,739.835632 698.214050,739.488647 
	C698.125610,737.526001 698.043701,735.707092 698.578857,733.198242 
M309.440765,304.749268 
	C313.431274,304.830353 317.423187,305.014465 321.411804,304.959473 
	C324.530701,304.916504 326.590973,303.739777 327.225189,300.129913 
	C328.200836,294.576233 329.788605,289.130066 331.119110,283.638855 
	C334.835419,268.301514 338.553009,252.964478 342.496948,236.691238 
	C343.143585,238.424301 343.513184,239.168945 343.701935,239.956879 
	C347.844940,257.254639 352.006012,274.548187 356.082275,291.861694 
	C359.226044,305.214447 359.176239,305.114777 372.564758,305.076691 
	C376.603027,305.065216 378.620331,303.309875 379.729919,299.658203 
	C387.512573,274.045532 395.377380,248.457764 403.151672,222.842545 
	C403.795563,220.720963 403.965210,218.455444 404.495056,215.468399 
	C399.828094,215.468399 396.030060,215.434601 392.232941,215.478119 
	C388.623169,215.519485 386.684357,217.037750 385.759247,220.904114 
	C381.272095,239.657196 376.449127,258.330078 371.714996,277.023712 
	C371.009033,279.811310 370.143188,282.558441 369.351318,285.324280 
	C368.290894,284.699402 368.127350,284.157135 368.000305,283.606476 
	C363.327179,263.352631 358.653564,243.098907 353.989441,222.842972 
	C352.520844,216.464905 351.332947,215.486588 344.898651,215.462906 
	C343.565460,215.458008 342.225891,215.546921 340.900146,215.447342 
	C335.767334,215.061752 333.227600,217.178818 332.060394,222.455658 
	C327.514465,243.007370 322.524933,263.460968 317.700439,283.951050 
	C316.234192,282.276978 315.613922,280.486603 315.143433,278.657684 
	C310.670380,261.268829 306.258392,243.864151 301.754852,226.483215 
	C298.881409,215.393265 298.825500,215.407745 287.452301,215.462189 
	C281.388275,215.491226 280.798553,216.293900 282.610657,222.217041 
	C290.340393,247.482315 298.057739,272.751434 305.861359,297.993896 
	C306.532227,300.164001 307.803009,302.148682 309.440765,304.749268 
M339.499878,394.168091 
	C353.717560,392.782898 368.094604,392.299866 382.119446,389.822784 
	C410.419434,384.824402 436.845062,374.611115 460.516296,357.955963 
	C462.855347,356.310242 466.340546,354.735596 464.094696,350.958893 
	C462.013367,347.458832 458.771515,348.414215 455.710785,349.759949 
	C454.950470,350.094208 454.159821,350.359070 453.385529,350.662018 
	C409.303619,367.912231 363.743744,375.162445 316.459686,371.179291 
	C273.047424,367.522247 232.381821,355.084808 194.431046,333.693878 
	C192.045990,332.349518 189.257568,329.049561 186.802734,332.684509 
	C186.155914,333.642273 188.516266,337.550415 190.340942,339.122955 
	C232.893036,375.795776 282.305237,394.145142 339.499878,394.168091 
M611.792908,566.765259 
	C620.146179,580.937927 628.459229,595.134766 636.916809,609.244934 
	C637.736938,610.613220 639.405273,612.307678 640.757996,612.379395 
	C647.035095,612.712585 653.339844,612.526794 659.671875,612.526794 
	C659.671875,582.171448 659.671875,552.302185 659.671875,522.364075 
	C653.900513,522.364075 648.467651,522.364075 642.200684,522.364075 
	C642.200684,542.599609 642.200684,562.639282 642.200684,582.678955 
	C630.231812,563.755859 619.208618,544.797302 608.058838,525.913513 
	C607.164246,524.398254 605.459900,522.417664 604.026306,522.327271 
	C597.772766,521.933228 591.480164,522.157837 585.020264,522.157837 
	C585.020264,552.480164 585.020264,582.241272 585.020264,612.208130 
	C590.752930,612.208130 596.310364,612.208130 602.449341,612.208130 
	C602.449341,592.130676 602.449341,572.373962 602.449341,552.617188 
	C602.727600,552.571777 603.005920,552.526367 603.284180,552.480957 
	C605.981018,557.041992 608.677856,561.602966 611.792908,566.765259 
M418.491699,522.152466 
	C409.544678,522.152466 400.597656,522.152466 391.405945,522.152466 
	C391.405945,552.423096 391.405945,582.167236 391.405945,612.223999 
	C397.573730,612.223999 403.651794,612.223999 410.238586,612.223999 
	C410.238586,600.816528 410.238586,589.575012 410.238586,578.008301 
	C412.879456,578.008301 415.055786,578.264893 417.147949,577.954407 
	C421.380432,577.326111 423.609619,579.003967 425.549072,582.851257 
	C430.184418,592.046326 435.378204,600.963013 440.473541,609.919800 
	C441.204437,611.204651 442.594879,612.953918 443.755890,613.013550 
	C449.806519,613.324524 455.881592,613.158630 462.792847,613.158630 
	C455.090912,599.746033 447.866577,587.165161 440.575745,574.468506 
	C442.351501,573.348572 443.779602,572.511414 445.142365,571.578796 
	C461.839722,560.152039 460.518066,535.787720 442.800842,526.008118 
	C435.407440,521.927063 427.491333,522.012329 418.491699,522.152466 
M837.881958,575.283325 
	C840.885559,572.672058 844.185974,570.329163 846.835938,567.398071 
	C854.124023,559.337219 855.294434,549.867737 851.754211,539.904663 
	C847.872375,528.979614 839.125122,523.344666 828.233521,522.567688 
	C815.029846,521.625793 801.707703,522.344238 788.316772,522.344238 
	C788.316772,552.493591 788.316772,582.346680 788.316772,612.162720 
	C794.697876,612.162720 800.751282,612.162720 807.262573,612.162720 
	C807.262573,600.561646 807.262573,589.323364 807.262573,578.005737 
	C809.562744,578.005737 811.439209,578.268799 813.213928,577.955322 
	C818.081177,577.095459 820.590515,579.244812 822.736755,583.542114 
	C827.188232,592.454834 832.230896,601.075256 837.147339,609.749573 
	C837.894592,611.067871 839.220276,612.946655 840.359863,613.006104 
	C846.524048,613.327881 852.713867,613.158630 859.655579,613.158630 
	C852.119446,600.120483 845.146240,588.056091 837.881958,575.283325 
M272.701904,302.283356 
	C277.783905,300.277527 278.074097,296.946075 275.916931,292.379974 
	C274.304230,288.966339 272.667358,285.260529 272.378143,281.579773 
	C271.336212,268.319427 270.842926,255.015488 270.176544,241.726303 
	C269.613831,230.504028 266.498505,220.462128 255.544113,215.271698 
	C238.451050,207.172638 221.834900,210.895432 205.672409,218.540817 
	C203.170120,219.724487 201.665909,228.539917 203.348114,230.915192 
	C203.874954,231.659088 205.355499,232.193649 206.303543,232.072586 
	C208.077942,231.845993 209.749359,230.907043 211.521210,230.550980 
	C220.095276,228.827942 228.637573,226.246765 237.288071,225.784622 
	C247.649445,225.231094 253.862106,232.260330 254.128738,242.651047 
	C254.218079,246.132538 254.142868,249.618256 254.142868,253.601532 
	C251.550125,253.146545 249.472580,252.620148 247.365631,252.442429 
	C240.928986,251.899490 234.441162,250.795410 228.045074,251.162186 
	C210.019302,252.195831 197.784546,264.894073 198.477295,281.078949 
	C199.298843,300.273132 214.589340,310.998383 234.563812,306.550079 
	C243.142593,304.639618 250.122589,300.127899 256.256439,293.730347 
	C257.767090,296.296753 258.904236,298.673431 260.442139,300.753906 
	C264.305817,305.980743 266.561340,306.291595 272.701904,302.283356 
M291.465027,612.538452 
	C294.458008,612.538452 297.451019,612.538452 300.742798,612.538452 
	C302.477234,606.876038 303.998352,601.268311 305.995331,595.835571 
	C306.503937,594.451904 308.490784,592.734741 309.853058,592.685669 
	C318.007141,592.391724 326.182709,592.390198 334.336395,592.689697 
	C335.684570,592.739197 337.614807,594.507324 338.148010,595.910095 
	C339.795227,600.243530 340.761322,604.831726 342.294891,609.215088 
	C342.744598,610.500488 344.161316,612.329407 345.207947,612.379517 
	C351.441101,612.677307 357.695709,612.526733 364.616302,612.526733 
	C354.154572,581.895752 343.976257,552.094727 333.749207,522.150940 
	C327.669342,522.150940 321.837585,522.341309 316.026672,522.075745 
	C312.814819,521.929077 311.444122,523.006775 310.396484,526.078247 
	C302.997009,547.772339 295.372620,569.389587 287.814392,591.029480 
	C285.374023,598.016541 282.916870,604.997742 280.272125,612.538330 
	C284.229004,612.538330 287.371887,612.538330 291.465027,612.538452 
M714.016541,550.470337 
	C714.016541,546.221680 714.016541,541.972961 714.016541,537.326782 
	C727.660400,537.326782 740.598389,537.326782 753.593445,537.326782 
	C753.593445,532.154297 753.593445,527.399109 753.593445,522.396545 
	C733.775635,522.396545 714.222900,522.396545 694.489990,522.396545 
	C694.489990,552.489258 694.489990,582.325928 694.489990,612.224548 
	C714.411011,612.224548 733.981812,612.224548 753.582275,612.224548 
	C753.582275,607.134033 753.582275,602.376892 753.582275,597.042358 
	C740.287231,597.042358 727.255371,597.042358 714.275635,597.042358 
	C714.275635,589.032593 714.275635,581.610168 714.275635,573.821960 
	C724.950867,573.821960 735.374390,573.821960 745.895020,573.821960 
	C745.895020,568.527344 745.895020,563.609070 745.895020,558.286377 
	C735.183228,558.286377 724.770569,558.286377 714.016541,558.286377 
	C714.016541,555.740417 714.016541,553.601257 714.016541,550.470337 
M257.057495,530.440735 
	C250.924332,525.115173 243.847763,522.188843 235.677505,522.159729 
	C225.511765,522.123474 215.345825,522.151001 205.179962,522.150940 
	C203.259598,522.150940 201.339218,522.150879 199.473053,522.150879 
	C199.473053,552.645569 199.473053,582.382385 199.473053,612.144287 
	C205.843674,612.144287 211.883469,612.144287 218.342651,612.144287 
	C218.342651,601.147339 218.342651,590.538452 218.342651,579.807739 
	C224.075073,579.807739 229.392380,579.570190 234.681732,579.853882 
	C248.559402,580.598328 260.660980,571.931274 264.021057,558.512817 
	C266.593842,548.238342 264.170258,539.102295 257.057495,530.440735 
M453.166962,292.015289 
	C449.438263,292.727264 445.580200,294.422424 442.006989,293.952362 
	C433.854095,292.879883 425.854706,290.674713 417.759674,289.100922 
	C415.982208,288.755310 413.460236,288.387146 412.337341,289.311920 
	C409.842682,291.366455 411.484863,301.230530 414.597443,302.390778 
	C430.871704,308.457336 447.331116,311.783051 463.734833,302.855469 
	C473.994354,297.271759 478.597504,288.269958 477.713745,276.773834 
	C476.825989,265.226105 468.943054,259.354004 458.973328,255.823166 
	C452.562073,253.552597 445.932404,251.904312 439.423828,249.901611 
	C432.318787,247.715363 428.575531,242.846817 429.012726,236.523636 
	C429.367157,231.397888 433.159943,228.211838 440.709747,226.971985 
	C449.786865,225.481323 458.544312,226.371628 466.968109,230.409302 
	C468.368195,231.080383 471.345306,231.017929 472.059082,230.100540 
	C474.521057,226.936203 472.138153,218.951004 468.429260,217.720413 
	C457.992706,214.257599 447.486359,211.253265 436.203705,212.961929 
	C422.158112,215.088974 411.009918,226.045761 410.825836,238.331390 
	C410.643829,250.481094 419.119629,260.484314 432.715454,264.772644 
	C440.755920,267.308685 448.820251,269.958618 456.490570,273.409332 
	C461.283020,275.565369 462.453796,279.766144 460.187378,284.347656 
	C458.797699,287.156860 456.033936,289.286346 453.166962,292.015289 
M527.178711,544.674744 
	C527.178711,542.593079 527.178711,540.511414 527.178711,538.023132 
	C536.876526,538.023132 545.789124,538.023132 554.673889,538.023132 
	C554.673889,532.541077 554.673889,527.484558 554.673889,522.346130 
	C529.911438,522.346130 505.484619,522.346130 480.760254,522.346130 
	C480.760254,527.617004 480.760254,532.695312 480.760254,538.244141 
	C489.889343,538.244141 498.813721,538.244141 508.136414,538.244141 
	C508.136414,563.123291 508.136414,587.538452 508.136414,612.243713 
	C514.628540,612.243713 520.706787,612.243713 527.178711,612.243713 
	C527.178711,589.891418 527.178711,567.763428 527.178711,544.674744 
M489.172943,352.664825 
	C490.069153,347.110626 491.121948,341.575806 491.812469,335.996124 
	C492.373657,331.461029 490.041931,328.901733 485.589508,327.919281 
	C469.956879,324.469818 454.876709,325.787903 440.466736,332.977295 
	C438.704529,333.856506 437.013733,335.027130 435.595764,336.382690 
	C434.929474,337.019623 434.744263,338.443451 434.853912,339.455048 
	C434.892517,339.811127 436.475525,340.265564 437.327026,340.216644 
	C439.645721,340.083405 441.945404,339.518921 444.261414,339.457642 
	C452.868896,339.230042 461.502502,338.699432 470.081635,339.144379 
	C475.858307,339.443970 477.784515,342.155457 476.964844,347.881714 
	C476.241852,352.932495 474.777191,357.921265 473.195648,362.793121 
	C471.454529,368.156647 469.116730,373.324249 467.255951,378.652985 
	C466.894257,379.688782 467.120148,381.637665 467.816376,382.142120 
	C468.559662,382.680634 470.313934,382.288849 471.383606,381.785797 
	C472.537476,381.243225 473.457764,380.149658 474.396881,379.213165 
	C481.648438,371.981689 485.964905,363.079712 489.172943,352.664825 
M697.076904,695.015808 
	C698.862305,695.015808 700.647644,695.015808 702.520020,695.015808 
	C702.520020,676.192444 702.520020,657.825439 702.520020,639.301147 
	C699.555725,639.301147 696.929382,639.301147 693.801514,639.301147 
	C693.801514,642.555603 693.801514,645.676392 693.801514,648.797119 
	C693.801514,651.908081 693.801514,655.019104 693.801514,658.559326 
	C692.074524,657.881042 691.015015,657.469055 689.958496,657.049377 
	C679.796448,653.012695 670.164978,657.124634 667.771423,667.737793 
	C666.480530,673.461365 666.772583,680.051880 668.239197,685.766541 
	C670.378479,694.101685 678.494507,697.722046 686.854858,695.360474 
	C689.221313,694.692017 691.438843,693.496643 693.611633,692.590027 
	C694.443970,693.352783 695.346619,694.179932 697.076904,695.015808 
M411.008392,695.008850 
	C413.599182,695.008850 416.189941,695.008850 419.289001,695.008850 
	C413.114349,678.031067 407.098419,661.683838 401.248749,645.277344 
	C399.664917,640.835266 396.190979,643.502869 393.621399,642.863220 
	C391.168823,642.252686 389.806488,643.364197 388.923798,645.896179 
	C384.713470,657.972900 380.281433,669.972229 375.933228,682.000916 
	C374.420837,686.184814 372.922668,690.373962 371.308044,694.866699 
	C374.854767,694.866699 377.820984,694.866699 380.980042,694.866699 
	C382.486267,690.511047 383.973236,686.211060 385.348816,682.233215 
	C392.278381,682.233215 398.560486,682.233215 404.391327,682.233215 
	C406.416443,686.714844 408.283539,690.846802 411.008392,695.008850 
M459.184296,644.625977 
	C459.184296,642.877258 459.184296,641.128601 459.184296,639.411865 
	C455.819977,639.411865 453.226135,639.411865 450.147858,639.411865 
	C450.147858,645.873413 450.147858,652.088562 450.147858,658.479736 
	C435.371857,652.616577 425.540741,657.005615 423.367889,670.578125 
	C422.022461,678.982483 422.345612,687.617676 430.106995,693.264526 
	C436.518799,697.929688 443.324860,696.536377 449.748688,692.553833 
	C449.995911,692.400635 450.384186,692.474976 450.588593,692.454895 
	C452.421326,697.186584 456.034332,694.249329 459.184296,694.980469 
	C459.184296,678.179626 459.184296,661.887939 459.184296,644.625977 
M615.985657,759.359436 
	C613.218140,763.396484 608.953369,763.585815 604.791809,763.282288 
	C600.259460,762.951904 595.770996,762.019226 591.258301,761.348328 
	C590.736938,768.286133 590.694458,768.413818 593.557800,769.366699 
	C600.653992,771.728149 607.870789,772.396484 615.106018,770.065735 
	C621.694702,767.943237 625.671143,762.916382 626.013306,756.635132 
	C626.403564,749.469971 623.963806,745.345764 616.968018,742.124268 
	C613.053650,740.321777 608.911316,739.020935 604.924988,737.365662 
	C601.659607,736.009644 598.966309,734.068665 599.869995,729.897400 
	C600.755127,725.811462 604.031250,724.833679 607.489685,724.946533 
	C612.558472,725.112000 617.611206,725.769226 622.781494,726.226746 
	C622.781494,724.128906 622.781494,721.690247 622.781494,718.197083 
	C616.539673,717.785095 610.442993,716.860535 604.396606,717.118103 
	C597.136719,717.427246 591.867432,722.459839 590.730652,728.857300 
	C589.395203,736.372864 591.982117,741.316772 599.471191,744.868103 
	C603.517212,746.786682 607.813049,748.173889 611.886658,750.039856 
	C615.490479,751.690552 618.125549,754.086609 615.985657,759.359436 
M659.330566,677.585693 
	C661.637817,666.375488 658.228516,658.390503 650.210632,656.225647 
	C639.790466,653.412231 629.895081,658.084534 627.660767,667.856567 
	C626.479675,673.022339 626.595825,678.803223 627.532654,684.055542 
	C628.753601,690.900208 633.832275,695.022522 640.719910,695.821167 
	C644.929626,696.309387 649.298706,695.674133 653.573181,695.288086 
	C658.508240,694.842407 660.587769,692.288269 658.747375,687.317627 
	C641.223511,690.434570 634.319824,687.764099 635.766724,678.074036 
	C643.345764,678.074036 650.977051,678.074036 659.330566,677.585693 
M819.033752,656.240173 
	C802.932007,653.991150 794.382812,661.554565 795.031372,677.555725 
	C795.111572,679.534363 795.477295,681.524231 795.918884,683.461426 
	C797.543335,690.588501 802.186768,694.903076 809.250366,695.793396 
	C813.611511,696.343140 818.240417,695.938354 822.590942,695.120544 
	C828.695923,693.972839 828.849121,693.262390 827.282715,687.114624 
	C811.192017,691.568054 802.729187,687.197937 804.409241,678.259033 
	C812.102539,678.259033 819.870972,678.259033 827.529663,678.259033 
	C830.694824,667.717651 827.963745,660.323303 819.033752,656.240173 
M808.838074,731.144409 
	C797.980957,735.397949 793.582275,745.595093 796.951904,758.692322 
	C798.763123,765.732239 803.376160,770.020142 810.450134,770.824524 
	C814.811401,771.320435 819.411194,770.901794 823.753784,770.090454 
	C829.685791,768.982117 829.860779,768.229858 828.273071,762.114380 
	C811.155884,766.901733 803.666138,761.412415 805.429138,753.141174 
	C813.176941,753.141174 821.046997,753.141174 828.782776,753.141174 
	C832.372559,737.487549 825.697937,729.562439 810.618225,730.929382 
	C810.287231,730.959351 809.955994,730.986755 808.838074,731.144409 
M650.021912,771.187439 
	C653.640930,770.848938 657.269104,770.586365 660.876831,770.153687 
	C665.969788,769.542847 666.794250,766.541382 665.358093,762.193909 
	C648.452637,765.725647 641.342468,763.009399 642.380920,753.250000 
	C650.093201,753.250000 657.846924,753.250000 665.934265,753.250000 
	C666.258484,750.720459 666.786438,748.447571 666.798706,746.171814 
	C666.841125,738.310303 662.777100,732.580322 656.321777,731.087036 
	C644.808472,728.423706 635.596680,734.292236 633.379211,745.702698 
	C630.644470,759.774841 636.613831,769.372253 650.021912,771.187439 
M526.134888,694.446777 
	C527.429199,693.775085 528.723572,693.103333 530.017883,692.431641 
	C529.986511,692.943604 529.955139,693.455566 529.923767,693.967468 
	C532.598999,694.425232 535.274231,694.882935 538.564453,695.445923 
	C538.564453,693.054871 538.571228,691.421509 538.563293,689.788269 
	C538.523621,681.640137 538.761169,673.477295 538.338318,665.348999 
	C538.059875,659.997131 534.416138,656.435059 528.948059,656.088135 
	C524.213440,655.787903 519.334778,656.026733 514.665649,656.852356 
	C508.487701,657.944824 508.362793,658.600525 509.793732,664.629395 
	C513.388306,664.042908 516.952942,663.147827 520.557678,662.935730 
	C529.156311,662.429871 530.767395,664.389587 529.527222,673.188293 
	C526.897400,672.938049 524.252075,672.403198 521.634949,672.517029 
	C519.023010,672.630493 516.298035,673.022888 513.871521,673.946594 
	C508.151093,676.124146 505.588348,681.502869 506.893707,687.707886 
	C508.031921,693.118347 512.037598,696.275208 518.142883,696.141602 
	C520.578857,696.088318 522.998962,695.303162 526.134888,694.446777 
M729.651794,642.874695 
	C729.318054,645.332825 728.984375,647.790955 728.582642,650.750366 
	C734.537964,650.750366 739.616699,650.750366 745.152832,650.750366 
	C745.152832,665.733521 745.152832,680.304932 745.152832,694.761841 
	C748.403564,694.761841 751.169250,694.761841 754.266846,694.761841 
	C754.266846,680.067688 754.266846,665.619568 754.266846,650.504028 
	C759.812012,650.504028 765.033997,650.504028 770.214050,650.504028 
	C770.214050,647.575928 770.214050,645.338013 770.214050,642.812500 
	C756.748718,642.812500 743.610229,642.812500 729.651794,642.874695 
M568.362549,655.931030 
	C564.808105,657.173279 561.253662,658.415588 559.445129,659.047668 
	C555.324280,657.854004 552.516968,657.040833 549.298706,656.108582 
	C549.298706,669.741333 549.298706,682.274231 549.298706,694.689209 
	C552.344482,694.689209 555.076050,694.689209 558.007751,694.689209 
	C558.007751,686.242004 557.990784,678.111389 558.025208,669.981018 
	C558.030701,668.685974 557.939209,666.424500 558.449341,666.251465 
	C562.258728,664.959473 566.213623,663.282043 570.112366,663.307861 
	C573.671875,663.331482 574.172241,667.032776 574.160583,670.215088 
	C574.130859,678.321899 574.150757,686.428955 574.150757,694.768066 
	C577.325928,694.768066 580.052002,694.768066 583.176819,694.768066 
	C583.176819,685.774109 583.199890,677.001343 583.170593,668.228699 
	C583.137756,658.393311 579.200989,654.937500 568.362549,655.931030 
M842.638916,770.874695 
	C846.122131,770.899719 849.651489,771.294922 853.078491,770.868286 
	C859.150391,770.112366 863.295471,765.708740 863.844360,760.133118 
	C864.342651,755.071167 861.743713,751.392212 855.828918,748.888428 
	C853.388794,747.855591 850.693909,747.248230 848.514648,745.832092 
	C846.798035,744.716553 845.694214,742.657898 844.318176,741.018188 
	C846.309265,739.880615 848.244934,737.926514 850.303650,737.786926 
	C853.849121,737.546753 857.471008,738.436279 861.054138,738.850891 
	C862.945618,733.890930 860.646851,731.543335 856.013977,731.146729 
	C852.408752,730.838196 848.692505,730.661255 845.138855,731.188782 
	C839.859558,731.972412 836.400940,735.729980 835.871826,740.260254 
	C835.243347,745.641174 837.288391,749.418274 842.452454,751.899841 
	C844.984741,753.116638 847.915283,753.629944 850.232300,755.130676 
	C852.182983,756.394226 854.830139,758.625854 854.829407,760.427979 
	C854.827942,764.031433 851.236511,764.294678 848.376404,764.080933 
	C844.164368,763.766113 839.980713,763.072510 835.852112,762.548767 
	C833.761108,768.292236 837.291687,769.882019 842.638916,770.874695 
M475.148132,683.439880 
	C475.765900,684.981750 476.630829,686.473206 476.957306,688.074463 
	C478.171539,694.030396 481.621948,696.338928 487.539246,694.967834 
	C487.860962,694.893372 488.180450,694.809082 488.779083,694.660156 
	C493.505280,682.329224 498.288147,669.850464 503.110504,657.268799 
	C494.044220,656.174377 494.058380,656.178955 491.578094,663.852722 
	C489.304657,670.886658 486.996155,677.909302 484.289856,686.203308 
	C482.321594,680.306458 480.737122,675.627991 479.199677,670.934143 
	C477.663696,666.244690 476.174774,661.539795 474.786530,657.219238 
	C471.212341,657.219238 468.186340,657.219238 464.986145,657.219238 
	C468.416321,665.995239 471.679596,674.344238 475.148132,683.439880 
M771.026855,746.173523 
	C773.789429,738.272949 775.502869,737.634888 789.774963,739.192017 
	C790.658630,732.659363 790.213440,731.590454 784.003357,731.224731 
	C779.816956,730.978149 775.216797,731.242859 771.387207,732.758423 
	C762.395264,736.316895 758.666565,748.760620 762.542236,759.992432 
	C765.551086,768.712097 774.521423,772.737732 785.135925,770.521912 
	C789.874329,769.532715 791.787720,767.394836 789.985046,762.460083 
	C788.701294,762.666809 787.422485,762.868469 786.145203,763.079102 
	C774.424194,765.011963 769.665222,760.502075 770.799927,748.535889 
	C770.847046,748.038696 770.887756,747.540894 771.026855,746.173523 
M609.859314,688.478638 
	C602.421204,686.818909 599.850952,682.511536 601.140259,672.854736 
	C601.473389,670.359192 602.548340,666.492004 604.204529,665.918701 
	C609.237305,664.176697 614.721069,663.737793 620.348511,662.734497 
	C620.810974,657.666138 620.568970,656.974365 614.905212,656.304077 
	C611.349854,655.883362 607.496948,655.860229 604.080322,656.781494 
	C593.884705,659.530579 589.059814,670.941956 592.361328,683.451294 
	C594.925598,693.167114 604.201477,698.023438 615.329468,695.476196 
	C621.268372,694.116760 621.685364,693.415833 620.130920,687.620972 
	C616.983337,687.956970 613.859985,688.290466 609.859314,688.478638 
M836.994263,660.647217 
	C836.994263,672.062988 836.994263,683.478760 836.994263,694.693970 
	C840.448425,694.693970 843.206909,694.693970 846.174255,694.693970 
	C846.174255,689.404724 846.174255,684.425659 846.174255,679.446594 
	C846.174255,665.697021 846.174255,665.697021 859.876587,664.510986 
	C859.876587,661.965698 859.876587,659.414246 859.876587,655.295349 
	C854.669922,657.212769 850.234497,658.846191 845.563843,660.566223 
	C845.291687,659.643250 844.895447,658.299500 844.371399,656.522217 
	C841.855957,658.167847 837.608521,653.952576 836.994263,660.647217 
M752.592773,735.032654 
	C751.358521,727.753784 746.260620,733.825989 743.251465,731.366638 
	C743.251465,744.809631 743.251465,757.262451 743.251465,769.970703 
	C746.305603,769.970703 749.223938,769.970703 752.593079,769.970703 
	C752.593079,758.473389 752.593079,747.204224 752.592773,735.032654 
M777.001404,659.660400 
	C777.001404,671.400879 777.001404,683.141357 777.001404,694.689331 
	C780.443909,694.689331 783.199402,694.689331 785.885864,694.689331 
	C785.885864,681.974426 785.885864,669.571411 785.885864,655.920227 
	C782.549744,656.961182 779.778748,657.825867 777.001404,659.660400 
M747.599121,725.587341 
	C751.075684,725.559937 753.287964,724.293579 753.257996,720.347107 
	C753.233154,717.073425 751.524048,714.919617 748.555420,715.332092 
	C746.429260,715.627502 743.570679,717.348877 742.796265,719.178101 
	C741.487305,722.269897 743.027100,724.988708 747.599121,725.587341 
M780.771240,640.146423 
	C779.264954,641.454346 776.965515,642.499451 776.425964,644.127747 
	C775.455444,647.056519 776.662964,649.749878 780.158142,650.378479 
	C783.120300,650.911072 786.094604,650.480713 786.864746,647.040588 
	C787.774841,642.975647 786.145691,640.277954 780.771240,640.146423 
z"/>
<path fill="#283241" opacity="1.000000" stroke="none" 
	d="
M309.117981,304.484375 
	C307.803009,302.148682 306.532227,300.164001 305.861359,297.993896 
	C298.057739,272.751434 290.340393,247.482315 282.610657,222.217041 
	C280.798553,216.293900 281.388275,215.491226 287.452301,215.462189 
	C298.825500,215.407745 298.881409,215.393265 301.754852,226.483215 
	C306.258392,243.864151 310.670380,261.268829 315.143433,278.657684 
	C315.613922,280.486603 316.234192,282.276978 317.700439,283.951050 
	C322.524933,263.460968 327.514465,243.007370 332.060394,222.455658 
	C333.227600,217.178818 335.767334,215.061752 340.900146,215.447342 
	C342.225891,215.546921 343.565460,215.458008 344.898651,215.462906 
	C351.332947,215.486588 352.520844,216.464905 353.989441,222.842972 
	C358.653564,243.098907 363.327179,263.352631 368.000305,283.606476 
	C368.127350,284.157135 368.290894,284.699402 369.351318,285.324280 
	C370.143188,282.558441 371.009033,279.811310 371.714996,277.023712 
	C376.449127,258.330078 381.272095,239.657196 385.759247,220.904114 
	C386.684357,217.037750 388.623169,215.519485 392.232941,215.478119 
	C396.030060,215.434601 399.828094,215.468399 404.495056,215.468399 
	C403.965210,218.455444 403.795563,220.720963 403.151672,222.842545 
	C395.377380,248.457764 387.512573,274.045532 379.729919,299.658203 
	C378.620331,303.309875 376.603027,305.065216 372.564758,305.076691 
	C359.176239,305.114777 359.226044,305.214447 356.082275,291.861694 
	C352.006012,274.548187 347.844940,257.254639 343.701935,239.956879 
	C343.513184,239.168945 343.143585,238.424301 342.496948,236.691238 
	C338.553009,252.964478 334.835419,268.301514 331.119110,283.638855 
	C329.788605,289.130066 328.200836,294.576233 327.225189,300.129913 
	C326.590973,303.739777 324.530701,304.916504 321.411804,304.959473 
	C317.423187,305.014465 313.431274,304.830353 309.117981,304.484375 
z"/>
<path fill="#FF9B04" opacity="1.000000" stroke="none" 
	d="
M338.999939,394.168152 
	C282.305237,394.145142 232.893036,375.795776 190.340942,339.122955 
	C188.516266,337.550415 186.155914,333.642273 186.802734,332.684509 
	C189.257568,329.049561 192.045990,332.349518 194.431046,333.693878 
	C232.381821,355.084808 273.047424,367.522247 316.459686,371.179291 
	C363.743744,375.162445 409.303619,367.912231 453.385529,350.662018 
	C454.159821,350.359070 454.950470,350.094208 455.710785,349.759949 
	C458.771515,348.414215 462.013367,347.458832 464.094696,350.958893 
	C466.340546,354.735596 462.855347,356.310242 460.516296,357.955963 
	C436.845062,374.611115 410.419434,384.824402 382.119446,389.822784 
	C368.094604,392.299866 353.717560,392.782898 338.999939,394.168152 
z"/>
<path fill="#283240" opacity="1.000000" stroke="none" 
	d="
M611.583740,566.464600 
	C608.677856,561.602966 605.981018,557.041992 603.284180,552.480957 
	C603.005920,552.526367 602.727600,552.571777 602.449341,552.617188 
	C602.449341,572.373962 602.449341,592.130676 602.449341,612.208130 
	C596.310364,612.208130 590.752930,612.208130 585.020264,612.208130 
	C585.020264,582.241272 585.020264,552.480164 585.020264,522.157837 
	C591.480164,522.157837 597.772766,521.933228 604.026306,522.327271 
	C605.459900,522.417664 607.164246,524.398254 608.058838,525.913513 
	C619.208618,544.797302 630.231812,563.755859 642.200684,582.678955 
	C642.200684,562.639282 642.200684,542.599609 642.200684,522.364075 
	C648.467651,522.364075 653.900513,522.364075 659.671875,522.364075 
	C659.671875,552.302185 659.671875,582.171448 659.671875,612.526794 
	C653.339844,612.526794 647.035095,612.712585 640.757996,612.379395 
	C639.405273,612.307678 637.736938,610.613220 636.916809,609.244934 
	C628.459229,595.134766 620.146179,580.937927 611.583740,566.464600 
z"/>
<path fill="#283241" opacity="1.000000" stroke="none" 
	d="
M418.989258,522.152466 
	C427.491333,522.012329 435.407440,521.927063 442.800842,526.008118 
	C460.518066,535.787720 461.839722,560.152039 445.142365,571.578796 
	C443.779602,572.511414 442.351501,573.348572 440.575745,574.468506 
	C447.866577,587.165161 455.090912,599.746033 462.792847,613.158630 
	C455.881592,613.158630 449.806519,613.324524 443.755890,613.013550 
	C442.594879,612.953918 441.204437,611.204651 440.473541,609.919800 
	C435.378204,600.963013 430.184418,592.046326 425.549072,582.851257 
	C423.609619,579.003967 421.380432,577.326111 417.147949,577.954407 
	C415.055786,578.264893 412.879456,578.008301 410.238586,578.008301 
	C410.238586,589.575012 410.238586,600.816528 410.238586,612.223999 
	C403.651794,612.223999 397.573730,612.223999 391.405945,612.223999 
	C391.405945,582.167236 391.405945,552.423096 391.405945,522.152466 
	C400.597656,522.152466 409.544678,522.152466 418.989258,522.152466 
M436.816376,554.688538 
	C438.862762,535.225830 428.973724,534.582520 411.004822,536.704529 
	C411.004822,541.163940 411.004822,545.643677 411.004822,550.123474 
	C411.004822,554.518066 411.004822,558.912659 411.004822,563.486450 
	C415.416504,563.486450 419.095612,563.218384 422.721222,563.544739 
	C429.360443,564.142395 433.976288,561.648621 436.816376,554.688538 
z"/>
<path fill="#273140" opacity="1.000000" stroke="none" 
	d="
M838.027466,575.637573 
	C845.146240,588.056091 852.119446,600.120483 859.655579,613.158630 
	C852.713867,613.158630 846.524048,613.327881 840.359863,613.006104 
	C839.220276,612.946655 837.894592,611.067871 837.147339,609.749573 
	C832.230896,601.075256 827.188232,592.454834 822.736755,583.542114 
	C820.590515,579.244812 818.081177,577.095459 813.213928,577.955322 
	C811.439209,578.268799 809.562744,578.005737 807.262573,578.005737 
	C807.262573,589.323364 807.262573,600.561646 807.262573,612.162720 
	C800.751282,612.162720 794.697876,612.162720 788.316772,612.162720 
	C788.316772,582.346680 788.316772,552.493591 788.316772,522.344238 
	C801.707703,522.344238 815.029846,521.625793 828.233521,522.567688 
	C839.125122,523.344666 847.872375,528.979614 851.754211,539.904663 
	C855.294434,549.867737 854.124023,559.337219 846.835938,567.398071 
	C844.185974,570.329163 840.885559,572.672058 838.027466,575.637573 
M807.002258,548.508667 
	C807.002258,553.437622 807.002258,558.366638 807.002258,563.728271 
	C812.114990,563.728271 816.594482,563.727600 821.073975,563.731018 
	C821.238342,563.731140 821.402832,563.791443 821.567078,563.790527 
	C827.999512,563.755249 833.257996,559.116272 833.822998,552.982483 
	C834.689148,543.579224 831.279297,536.962952 824.468201,536.254456 
	C818.779602,535.662903 812.980591,536.133179 807.002258,536.133179 
	C807.002258,540.241150 807.002258,543.878357 807.002258,548.508667 
z"/>
<path fill="#283240" opacity="1.000000" stroke="none" 
	d="
M272.399658,302.508057 
	C266.561340,306.291595 264.305817,305.980743 260.442139,300.753906 
	C258.904236,298.673431 257.767090,296.296753 256.256439,293.730347 
	C250.122589,300.127899 243.142593,304.639618 234.563812,306.550079 
	C214.589340,310.998383 199.298843,300.273132 198.477295,281.078949 
	C197.784546,264.894073 210.019302,252.195831 228.045074,251.162186 
	C234.441162,250.795410 240.928986,251.899490 247.365631,252.442429 
	C249.472580,252.620148 251.550125,253.146545 254.142868,253.601532 
	C254.142868,249.618256 254.218079,246.132538 254.128738,242.651047 
	C253.862106,232.260330 247.649445,225.231094 237.288071,225.784622 
	C228.637573,226.246765 220.095276,228.827942 211.521210,230.550980 
	C209.749359,230.907043 208.077942,231.845993 206.303543,232.072586 
	C205.355499,232.193649 203.874954,231.659088 203.348114,230.915192 
	C201.665909,228.539917 203.170120,219.724487 205.672409,218.540817 
	C221.834900,210.895432 238.451050,207.172638 255.544113,215.271698 
	C266.498505,220.462128 269.613831,230.504028 270.176544,241.726303 
	C270.842926,255.015488 271.336212,268.319427 272.378143,281.579773 
	C272.667358,285.260529 274.304230,288.966339 275.916931,292.379974 
	C278.074097,296.946075 277.783905,300.277527 272.399658,302.508057 
M255.473526,270.546173 
	C256.384308,266.026550 254.172241,264.287781 249.933228,264.050018 
	C246.631226,263.864746 243.304520,262.858856 240.063812,263.126373 
	C234.712158,263.568207 229.175369,264.044373 224.172729,265.803284 
	C219.055374,267.602570 216.250839,274.978882 217.107529,280.990540 
	C217.995438,287.221344 222.413147,293.120544 227.570221,293.548065 
	C240.775177,294.642792 256.369324,288.085297 255.473526,270.546173 
z"/>
<path fill="#293241" opacity="1.000000" stroke="none" 
	d="
M290.989899,612.538391 
	C287.371887,612.538330 284.229004,612.538330 280.272125,612.538330 
	C282.916870,604.997742 285.374023,598.016541 287.814392,591.029480 
	C295.372620,569.389587 302.997009,547.772339 310.396484,526.078247 
	C311.444122,523.006775 312.814819,521.929077 316.026672,522.075745 
	C321.837585,522.341309 327.669342,522.150940 333.749207,522.150940 
	C343.976257,552.094727 354.154572,581.895752 364.616302,612.526733 
	C357.695709,612.526733 351.441101,612.677307 345.207947,612.379517 
	C344.161316,612.329407 342.744598,610.500488 342.294891,609.215088 
	C340.761322,604.831726 339.795227,600.243530 338.148010,595.910095 
	C337.614807,594.507324 335.684570,592.739197 334.336395,592.689697 
	C326.182709,592.390198 318.007141,592.391724 309.853058,592.685669 
	C308.490784,592.734741 306.503937,594.451904 305.995331,595.835571 
	C303.998352,601.268311 302.477234,606.876038 300.742798,612.538452 
	C297.451019,612.538452 294.458008,612.538452 290.989899,612.538391 
M323.059967,545.640930 
	C322.614471,544.564636 322.168976,543.488342 321.452423,541.757141 
	C317.756317,554.134521 314.301605,565.703430 310.743500,577.618713 
	C318.156311,577.618713 325.044037,577.618713 332.647430,577.618713 
	C329.431244,566.954712 326.330322,556.672974 323.059967,545.640930 
z"/>
<path fill="#2C3544" opacity="1.000000" stroke="none" 
	d="
M714.016541,550.966248 
	C714.016541,553.601257 714.016541,555.740417 714.016541,558.286377 
	C724.770569,558.286377 735.183228,558.286377 745.895020,558.286377 
	C745.895020,563.609070 745.895020,568.527344 745.895020,573.821960 
	C735.374390,573.821960 724.950867,573.821960 714.275635,573.821960 
	C714.275635,581.610168 714.275635,589.032593 714.275635,597.042358 
	C727.255371,597.042358 740.287231,597.042358 753.582275,597.042358 
	C753.582275,602.376892 753.582275,607.134033 753.582275,612.224548 
	C733.981812,612.224548 714.411011,612.224548 694.489990,612.224548 
	C694.489990,582.325928 694.489990,552.489258 694.489990,522.396545 
	C714.222900,522.396545 733.775635,522.396545 753.593445,522.396545 
	C753.593445,527.399109 753.593445,532.154297 753.593445,537.326782 
	C740.598389,537.326782 727.660400,537.326782 714.016541,537.326782 
	C714.016541,541.972961 714.016541,546.221680 714.016541,550.966248 
z"/>
<path fill="#293241" opacity="1.000000" stroke="none" 
	d="
M257.299011,530.707642 
	C264.170258,539.102295 266.593842,548.238342 264.021057,558.512817 
	C260.660980,571.931274 248.559402,580.598328 234.681732,579.853882 
	C229.392380,579.570190 224.075073,579.807739 218.342651,579.807739 
	C218.342651,590.538452 218.342651,601.147339 218.342651,612.144287 
	C211.883469,612.144287 205.843674,612.144287 199.473053,612.144287 
	C199.473053,582.382385 199.473053,552.645569 199.473053,522.150879 
	C201.339218,522.150879 203.259598,522.150940 205.179962,522.150940 
	C215.345825,522.151001 225.511765,522.123474 235.677505,522.159729 
	C243.847763,522.188843 250.924332,525.115173 257.299011,530.707642 
M235.490860,537.432739 
	C229.895355,537.166260 224.299850,536.899780 218.464706,536.621887 
	C218.330688,538.224426 218.183456,539.180847 218.181259,540.137634 
	C218.162766,548.254883 218.170700,556.372070 218.170700,564.997498 
	C222.522705,564.997498 226.469452,565.001221 230.416214,564.996765 
	C238.787704,564.987305 242.498734,562.274109 244.095123,555.003235 
	C245.889236,546.831848 243.289871,541.134033 235.490860,537.432739 
z"/>
<path fill="#283241" opacity="1.000000" stroke="none" 
	d="
M453.527100,291.868195 
	C456.033936,289.286346 458.797699,287.156860 460.187378,284.347656 
	C462.453796,279.766144 461.283020,275.565369 456.490570,273.409332 
	C448.820251,269.958618 440.755920,267.308685 432.715454,264.772644 
	C419.119629,260.484314 410.643829,250.481094 410.825836,238.331390 
	C411.009918,226.045761 422.158112,215.088974 436.203705,212.961929 
	C447.486359,211.253265 457.992706,214.257599 468.429260,217.720413 
	C472.138153,218.951004 474.521057,226.936203 472.059082,230.100540 
	C471.345306,231.017929 468.368195,231.080383 466.968109,230.409302 
	C458.544312,226.371628 449.786865,225.481323 440.709747,226.971985 
	C433.159943,228.211838 429.367157,231.397888 429.012726,236.523636 
	C428.575531,242.846817 432.318787,247.715363 439.423828,249.901611 
	C445.932404,251.904312 452.562073,253.552597 458.973328,255.823166 
	C468.943054,259.354004 476.825989,265.226105 477.713745,276.773834 
	C478.597504,288.269958 473.994354,297.271759 463.734833,302.855469 
	C447.331116,311.783051 430.871704,308.457336 414.597443,302.390778 
	C411.484863,301.230530 409.842682,291.366455 412.337341,289.311920 
	C413.460236,288.387146 415.982208,288.755310 417.759674,289.100922 
	C425.854706,290.674713 433.854095,292.879883 442.006989,293.952362 
	C445.580200,294.422424 449.438263,292.727264 453.527100,291.868195 
z"/>
<path fill="#283241" opacity="1.000000" stroke="none" 
	d="
M527.178711,545.155151 
	C527.178711,567.763428 527.178711,589.891418 527.178711,612.243713 
	C520.706787,612.243713 514.628540,612.243713 508.136414,612.243713 
	C508.136414,587.538452 508.136414,563.123291 508.136414,538.244141 
	C498.813721,538.244141 489.889343,538.244141 480.760254,538.244141 
	C480.760254,532.695312 480.760254,527.617004 480.760254,522.346130 
	C505.484619,522.346130 529.911438,522.346130 554.673889,522.346130 
	C554.673889,527.484558 554.673889,532.541077 554.673889,538.023132 
	C545.789124,538.023132 536.876526,538.023132 527.178711,538.023132 
	C527.178711,540.511414 527.178711,542.593079 527.178711,545.155151 
z"/>
<path fill="#FF9C08" opacity="1.000000" stroke="none" 
	d="
M489.083160,353.058075 
	C485.964905,363.079712 481.648438,371.981689 474.396881,379.213165 
	C473.457764,380.149658 472.537476,381.243225 471.383606,381.785797 
	C470.313934,382.288849 468.559662,382.680634 467.816376,382.142120 
	C467.120148,381.637665 466.894257,379.688782 467.255951,378.652985 
	C469.116730,373.324249 471.454529,368.156647 473.195648,362.793121 
	C474.777191,357.921265 476.241852,352.932495 476.964844,347.881714 
	C477.784515,342.155457 475.858307,339.443970 470.081635,339.144379 
	C461.502502,338.699432 452.868896,339.230042 444.261414,339.457642 
	C441.945404,339.518921 439.645721,340.083405 437.327026,340.216644 
	C436.475525,340.265564 434.892517,339.811127 434.853912,339.455048 
	C434.744263,338.443451 434.929474,337.019623 435.595764,336.382690 
	C437.013733,335.027130 438.704529,333.856506 440.466736,332.977295 
	C454.876709,325.787903 469.956879,324.469818 485.589508,327.919281 
	C490.041931,328.901733 492.373657,331.461029 491.812469,335.996124 
	C491.121948,341.575806 490.069153,347.110626 489.083160,353.058075 
z"/>
<path fill="#2C3544" opacity="1.000000" stroke="none" 
	d="
M696.663086,695.011475 
	C695.346619,694.179932 694.443970,693.352783 693.611633,692.590027 
	C691.438843,693.496643 689.221313,694.692017 686.854858,695.360474 
	C678.494507,697.722046 670.378479,694.101685 668.239197,685.766541 
	C666.772583,680.051880 666.480530,673.461365 667.771423,667.737793 
	C670.164978,657.124634 679.796448,653.012695 689.958496,657.049377 
	C691.015015,657.469055 692.074524,657.881042 693.801514,658.559326 
	C693.801514,655.019104 693.801514,651.908081 693.801514,648.797119 
	C693.801514,645.676392 693.801514,642.555603 693.801514,639.301147 
	C696.929382,639.301147 699.555725,639.301147 702.520020,639.301147 
	C702.520020,657.825439 702.520020,676.192444 702.520020,695.015808 
	C700.647644,695.015808 698.862305,695.015808 696.663086,695.011475 
M680.902344,687.841187 
	C685.118469,689.749390 691.522888,689.175354 692.189087,686.314453 
	C693.772949,679.513611 694.109924,671.682922 692.190613,665.069275 
	C690.939209,660.756897 680.448608,662.414001 677.602417,666.786926 
	C674.148987,672.092834 675.531189,682.901611 680.902344,687.841187 
z"/>
<path fill="#2A3342" opacity="1.000000" stroke="none" 
	d="
M410.579498,694.993774 
	C408.283539,690.846802 406.416443,686.714844 404.391327,682.233215 
	C398.560486,682.233215 392.278381,682.233215 385.348816,682.233215 
	C383.973236,686.211060 382.486267,690.511047 380.980042,694.866699 
	C377.820984,694.866699 374.854767,694.866699 371.308044,694.866699 
	C372.922668,690.373962 374.420837,686.184814 375.933228,682.000916 
	C380.281433,669.972229 384.713470,657.972900 388.923798,645.896179 
	C389.806488,643.364197 391.168823,642.252686 393.621399,642.863220 
	C396.190979,643.502869 399.664917,640.835266 401.248749,645.277344 
	C407.098419,661.683838 413.114349,678.031067 419.289001,695.008850 
	C416.189941,695.008850 413.599182,695.008850 410.579498,694.993774 
M391.088135,663.694702 
	C389.985199,667.372681 388.882263,671.050720 387.734222,674.879028 
	C392.917969,674.879028 397.458527,674.879028 402.568939,674.879028 
	C400.125122,667.388123 397.822723,660.330750 395.106232,652.004089 
	C393.548523,656.538025 392.448669,659.739380 391.088135,663.694702 
z"/>
<path fill="#2A3443" opacity="1.000000" stroke="none" 
	d="
M459.184296,645.111084 
	C459.184296,661.887939 459.184296,678.179626 459.184296,694.980469 
	C456.034332,694.249329 452.421326,697.186584 450.588593,692.454895 
	C450.384186,692.474976 449.995911,692.400635 449.748688,692.553833 
	C443.324860,696.536377 436.518799,697.929688 430.106995,693.264526 
	C422.345612,687.617676 422.022461,678.982483 423.367889,670.578125 
	C425.540741,657.005615 435.371857,652.616577 450.147858,658.479736 
	C450.147858,652.088562 450.147858,645.873413 450.147858,639.411865 
	C453.226135,639.411865 455.819977,639.411865 459.184296,639.411865 
	C459.184296,641.128601 459.184296,642.877258 459.184296,645.111084 
M450.154816,678.396729 
	C450.154816,675.904724 450.155670,673.412659 450.154633,670.920654 
	C450.152069,664.605591 448.399170,662.867188 442.022064,662.853943 
	C436.911469,662.843262 433.798065,665.048645 432.934479,670.171021 
	C432.368591,673.527527 432.293762,677.115540 432.813721,680.473694 
	C433.730316,686.394043 437.471008,689.264832 442.628571,688.784668 
	C448.797943,688.210388 450.153778,686.511475 450.154816,678.396729 
z"/>
<path fill="#2C3544" opacity="1.000000" stroke="none" 
	d="
M616.134521,758.999634 
	C618.125549,754.086609 615.490479,751.690552 611.886658,750.039856 
	C607.813049,748.173889 603.517212,746.786682 599.471191,744.868103 
	C591.982117,741.316772 589.395203,736.372864 590.730652,728.857300 
	C591.867432,722.459839 597.136719,717.427246 604.396606,717.118103 
	C610.442993,716.860535 616.539673,717.785095 622.781494,718.197083 
	C622.781494,721.690247 622.781494,724.128906 622.781494,726.226746 
	C617.611206,725.769226 612.558472,725.112000 607.489685,724.946533 
	C604.031250,724.833679 600.755127,725.811462 599.869995,729.897400 
	C598.966309,734.068665 601.659607,736.009644 604.924988,737.365662 
	C608.911316,739.020935 613.053650,740.321777 616.968018,742.124268 
	C623.963806,745.345764 626.403564,749.469971 626.013306,756.635132 
	C625.671143,762.916382 621.694702,767.943237 615.106018,770.065735 
	C607.870789,772.396484 600.653992,771.728149 593.557800,769.366699 
	C590.694458,768.413818 590.736938,768.286133 591.258301,761.348328 
	C595.770996,762.019226 600.259460,762.951904 604.791809,763.282288 
	C608.953369,763.585815 613.218140,763.396484 616.134521,758.999634 
z"/>
<path fill="#2A3342" opacity="1.000000" stroke="none" 
	d="
M658.969482,677.829834 
	C650.977051,678.074036 643.345764,678.074036 635.766724,678.074036 
	C634.319824,687.764099 641.223511,690.434570 658.749268,687.318848 
	C660.587769,692.288269 658.508240,694.842407 653.573181,695.288086 
	C649.298706,695.674133 644.929626,696.309387 640.719910,695.821167 
	C633.832275,695.022522 628.753601,690.900208 627.532654,684.055542 
	C626.595825,678.803223 626.479675,673.022339 627.660767,667.856567 
	C629.895081,658.084534 639.790466,653.412231 650.210632,656.225647 
	C658.228516,658.390503 661.637817,666.375488 658.969482,677.829834 
M647.376343,662.952515 
	C640.280701,661.286621 635.974121,664.408997 635.287354,671.681885 
	C640.813477,671.681885 646.336792,671.681885 653.446350,671.681885 
	C651.263855,668.237732 649.678772,665.736145 647.376343,662.952515 
z"/>
<path fill="#2B3443" opacity="1.000000" stroke="none" 
	d="
M819.387695,656.397949 
	C827.963745,660.323303 830.694824,667.717651 827.529663,678.259033 
	C819.870972,678.259033 812.102539,678.259033 804.409241,678.259033 
	C802.729187,687.197937 811.192017,691.568054 827.282715,687.114624 
	C828.849121,693.262390 828.695923,693.972839 822.590942,695.120544 
	C818.240417,695.938354 813.611511,696.343140 809.250366,695.793396 
	C802.186768,694.903076 797.543335,690.588501 795.918884,683.461426 
	C795.477295,681.524231 795.111572,679.534363 795.031372,677.555725 
	C794.382812,661.554565 802.932007,653.991150 819.387695,656.397949 
M804.320862,668.394836 
	C804.175110,669.499207 804.029358,670.603577 803.885986,671.690125 
	C809.554016,671.690125 814.949768,671.690125 820.429199,671.690125 
	C820.491882,667.217712 819.458679,663.693420 814.854553,662.639404 
	C810.212708,661.576721 806.816162,663.410583 804.320862,668.394836 
z"/>
<path fill="#2B3443" opacity="1.000000" stroke="none" 
	d="
M809.231445,731.079895 
	C809.955994,730.986755 810.287231,730.959351 810.618225,730.929382 
	C825.697937,729.562439 832.372559,737.487549 828.782776,753.141174 
	C821.046997,753.141174 813.176941,753.141174 805.429138,753.141174 
	C803.666138,761.412415 811.155884,766.901733 828.273071,762.114380 
	C829.860779,768.229858 829.685791,768.982117 823.753784,770.090454 
	C819.411194,770.901794 814.811401,771.320435 810.450134,770.824524 
	C803.376160,770.020142 798.763123,765.732239 796.951904,758.692322 
	C793.582275,745.595093 797.980957,735.397949 809.231445,731.079895 
M812.114929,737.574097 
	C807.201477,738.657043 805.222473,741.975952 804.779785,746.810791 
	C810.541077,746.810791 815.946716,746.810791 821.357666,746.810791 
	C821.102051,739.639771 819.454956,737.845520 812.114929,737.574097 
z"/>
<path fill="#2B3443" opacity="1.000000" stroke="none" 
	d="
M649.609619,771.161072 
	C636.613831,769.372253 630.644470,759.774841 633.379211,745.702698 
	C635.596680,734.292236 644.808472,728.423706 656.321777,731.087036 
	C662.777100,732.580322 666.841125,738.310303 666.798706,746.171814 
	C666.786438,748.447571 666.258484,750.720459 665.934265,753.250000 
	C657.846924,753.250000 650.093201,753.250000 642.380920,753.250000 
	C641.342468,763.009399 648.452637,765.725647 665.358093,762.193909 
	C666.794250,766.541382 665.969788,769.542847 660.876831,770.153687 
	C657.269104,770.586365 653.640930,770.848938 649.609619,771.161072 
M643.906311,740.602966 
	C643.092529,742.564392 642.278809,744.525879 641.335938,746.798645 
	C647.630676,746.798645 652.910156,746.798645 659.938721,746.798645 
	C657.735107,743.299805 656.649475,739.968628 654.354980,738.317505 
	C651.084778,735.964417 647.376465,737.275146 643.906311,740.602966 
z"/>
<path fill="#2E3846" opacity="1.000000" stroke="none" 
	d="
M525.780579,694.648987 
	C522.998962,695.303162 520.578857,696.088318 518.142883,696.141602 
	C512.037598,696.275208 508.031921,693.118347 506.893707,687.707886 
	C505.588348,681.502869 508.151093,676.124146 513.871521,673.946594 
	C516.298035,673.022888 519.023010,672.630493 521.634949,672.517029 
	C524.252075,672.403198 526.897400,672.938049 529.527222,673.188293 
	C530.767395,664.389587 529.156311,662.429871 520.557678,662.935730 
	C516.952942,663.147827 513.388306,664.042908 509.793732,664.629395 
	C508.362793,658.600525 508.487701,657.944824 514.665649,656.852356 
	C519.334778,656.026733 524.213440,655.787903 528.948059,656.088135 
	C534.416138,656.435059 538.059875,659.997131 538.338318,665.348999 
	C538.761169,673.477295 538.523621,681.640137 538.563293,689.788269 
	C538.571228,691.421509 538.564453,693.054871 538.564453,695.445923 
	C535.274231,694.882935 532.598999,694.425232 529.923767,693.967468 
	C529.955139,693.455566 529.986511,692.943604 530.017883,692.431641 
	C528.723572,693.103333 527.429199,693.775085 525.780579,694.648987 
M521.202515,678.544312 
	C516.995605,679.056152 514.868042,681.340149 515.688721,685.615967 
	C516.399780,689.320740 519.172607,690.126709 522.477966,689.570618 
	C528.996094,688.474121 530.337891,686.548218 529.630493,679.053223 
	C527.148865,678.842529 524.571350,678.623657 521.202515,678.544312 
z"/>
<path fill="#2A3342" opacity="1.000000" stroke="none" 
	d="
M730.061768,642.843628 
	C743.610229,642.812500 756.748718,642.812500 770.214050,642.812500 
	C770.214050,645.338013 770.214050,647.575928 770.214050,650.504028 
	C765.033997,650.504028 759.812012,650.504028 754.266846,650.504028 
	C754.266846,665.619568 754.266846,680.067688 754.266846,694.761841 
	C751.169250,694.761841 748.403564,694.761841 745.152832,694.761841 
	C745.152832,680.304932 745.152832,665.733521 745.152832,650.750366 
	C739.616699,650.750366 734.537964,650.750366 728.582642,650.750366 
	C728.984375,647.790955 729.318054,645.332825 730.061768,642.843628 
z"/>
<path fill="#283240" opacity="1.000000" stroke="none" 
	d="
M568.763062,655.896790 
	C579.200989,654.937500 583.137756,658.393311 583.170593,668.228699 
	C583.199890,677.001343 583.176819,685.774109 583.176819,694.768066 
	C580.052002,694.768066 577.325928,694.768066 574.150757,694.768066 
	C574.150757,686.428955 574.130859,678.321899 574.160583,670.215088 
	C574.172241,667.032776 573.671875,663.331482 570.112366,663.307861 
	C566.213623,663.282043 562.258728,664.959473 558.449341,666.251465 
	C557.939209,666.424500 558.030701,668.685974 558.025208,669.981018 
	C557.990784,678.111389 558.007751,686.242004 558.007751,694.689209 
	C555.076050,694.689209 552.344482,694.689209 549.298706,694.689209 
	C549.298706,682.274231 549.298706,669.741333 549.298706,656.108582 
	C552.516968,657.040833 555.324280,657.854004 559.445129,659.047668 
	C561.253662,658.415588 564.808105,657.173279 568.763062,655.896790 
z"/>
<path fill="#2D3645" opacity="1.000000" stroke="none" 
	d="
M842.237061,770.796753 
	C837.291687,769.882019 833.761108,768.292236 835.852112,762.548767 
	C839.980713,763.072510 844.164368,763.766113 848.376404,764.080933 
	C851.236511,764.294678 854.827942,764.031433 854.829407,760.427979 
	C854.830139,758.625854 852.182983,756.394226 850.232300,755.130676 
	C847.915283,753.629944 844.984741,753.116638 842.452454,751.899841 
	C837.288391,749.418274 835.243347,745.641174 835.871826,740.260254 
	C836.400940,735.729980 839.859558,731.972412 845.138855,731.188782 
	C848.692505,730.661255 852.408752,730.838196 856.013977,731.146729 
	C860.646851,731.543335 862.945618,733.890930 861.054138,738.850891 
	C857.471008,738.436279 853.849121,737.546753 850.303650,737.786926 
	C848.244934,737.926514 846.309265,739.880615 844.318176,741.018188 
	C845.694214,742.657898 846.798035,744.716553 848.514648,745.832092 
	C850.693909,747.248230 853.388794,747.855591 855.828918,748.888428 
	C861.743713,751.392212 864.342651,755.071167 863.844360,760.133118 
	C863.295471,765.708740 859.150391,770.112366 853.078491,770.868286 
	C849.651489,771.294922 846.122131,770.899719 842.237061,770.796753 
z"/>
<path fill="#2A3342" opacity="1.000000" stroke="none" 
	d="
M697.990417,733.017761 
	C701.214722,732.626526 704.439758,732.002808 707.662720,732.013428 
	C708.434021,732.015930 709.496155,734.030884 709.917542,735.289917 
	C712.647766,743.446228 715.237732,751.649475 718.345459,761.303101 
	C721.854492,750.692200 724.918030,741.428589 728.029419,732.020081 
	C730.948547,732.020081 733.730286,732.020081 736.917175,732.020081 
	C736.654236,733.061829 736.493896,734.130676 736.118408,735.117798 
	C732.107910,745.662354 727.925964,756.144653 724.116333,766.760742 
	C723.049561,769.733582 721.456299,770.418030 718.646362,770.244629 
	C716.006104,770.081726 713.796082,770.490112 712.540100,766.907898 
	C709.028503,756.892212 704.944885,747.075500 701.003174,737.213867 
	C700.430481,735.781189 699.398315,734.532227 698.270020,733.426636 
	C697.955994,733.441528 697.965759,733.229065 697.990417,733.017761 
z"/>
<path fill="#2A3443" opacity="1.000000" stroke="none" 
	d="
M475.045502,683.066528 
	C471.679596,674.344238 468.416321,665.995239 464.986145,657.219238 
	C468.186340,657.219238 471.212341,657.219238 474.786530,657.219238 
	C476.174774,661.539795 477.663696,666.244690 479.199677,670.934143 
	C480.737122,675.627991 482.321594,680.306458 484.289856,686.203308 
	C486.996155,677.909302 489.304657,670.886658 491.578094,663.852722 
	C494.058380,656.178955 494.044220,656.174377 503.110504,657.268799 
	C498.288147,669.850464 493.505280,682.329224 488.779083,694.660156 
	C488.180450,694.809082 487.860962,694.893372 487.539246,694.967834 
	C481.621948,696.338928 478.171539,694.030396 476.957306,688.074463 
	C476.630829,686.473206 475.765900,684.981750 475.045502,683.066528 
z"/>
<path fill="#2D3645" opacity="1.000000" stroke="none" 
	d="
M770.979126,746.608398 
	C770.887756,747.540894 770.847046,748.038696 770.799927,748.535889 
	C769.665222,760.502075 774.424194,765.011963 786.145203,763.079102 
	C787.422485,762.868469 788.701294,762.666809 789.985046,762.460083 
	C791.787720,767.394836 789.874329,769.532715 785.135925,770.521912 
	C774.521423,772.737732 765.551086,768.712097 762.542236,759.992432 
	C758.666565,748.760620 762.395264,736.316895 771.387207,732.758423 
	C775.216797,731.242859 779.816956,730.978149 784.003357,731.224731 
	C790.213440,731.590454 790.658630,732.659363 789.774963,739.192017 
	C775.502869,737.634888 773.789429,738.272949 770.979126,746.608398 
z"/>
<path fill="#2D3645" opacity="1.000000" stroke="none" 
	d="
M610.297974,688.551270 
	C613.859985,688.290466 616.983337,687.956970 620.130920,687.620972 
	C621.685364,693.415833 621.268372,694.116760 615.329468,695.476196 
	C604.201477,698.023438 594.925598,693.167114 592.361328,683.451294 
	C589.059814,670.941956 593.884705,659.530579 604.080322,656.781494 
	C607.496948,655.860229 611.349854,655.883362 614.905212,656.304077 
	C620.568970,656.974365 620.810974,657.666138 620.348511,662.734497 
	C614.721069,663.737793 609.237305,664.176697 604.204529,665.918701 
	C602.548340,666.492004 601.473389,670.359192 601.140259,672.854736 
	C599.850952,682.511536 602.421204,686.818909 610.297974,688.551270 
z"/>
<path fill="#273140" opacity="1.000000" stroke="none" 
	d="
M836.994507,660.163696 
	C837.608521,653.952576 841.855957,658.167847 844.371399,656.522217 
	C844.895447,658.299500 845.291687,659.643250 845.563843,660.566223 
	C850.234497,658.846191 854.669922,657.212769 859.876587,655.295349 
	C859.876587,659.414246 859.876587,661.965698 859.876587,664.510986 
	C846.174255,665.697021 846.174255,665.697021 846.174255,679.446594 
	C846.174255,684.425659 846.174255,689.404724 846.174255,694.693970 
	C843.206909,694.693970 840.448425,694.693970 836.994263,694.693970 
	C836.994263,683.478760 836.994263,672.062988 836.994507,660.163696 
z"/>
<path fill="#273140" opacity="1.000000" stroke="none" 
	d="
M697.880737,732.539429 
	C697.965759,733.229065 697.955994,733.441528 697.961426,733.771606 
	C698.043701,735.707092 698.125610,737.526001 698.214050,739.488647 
	C694.820007,739.835632 691.556458,740.031189 688.342041,740.538147 
	C685.340027,741.011658 683.977295,742.681396 684.090820,746.047058 
	C684.353638,753.841125 684.174377,761.650024 684.174377,769.812866 
	C681.250305,769.812866 678.509033,769.812866 675.378235,769.812866 
	C675.378235,757.542908 675.378235,745.018433 675.378235,732.158325 
	C677.443298,732.158325 679.682129,732.158325 682.366577,732.158325 
	C682.804199,733.254150 683.376770,734.687744 683.949280,736.121277 
	C683.940979,735.615784 683.932617,735.110229 683.924316,734.604736 
	C688.539917,733.756836 693.155457,732.908997 697.880737,732.539429 
z"/>
<path fill="#343E4C" opacity="1.000000" stroke="none" 
	d="
M752.592896,735.483887 
	C752.593079,747.204224 752.593079,758.473389 752.593079,769.970703 
	C749.223938,769.970703 746.305603,769.970703 743.251465,769.970703 
	C743.251465,757.262451 743.251465,744.809631 743.251465,731.366638 
	C746.260620,733.825989 751.358521,727.753784 752.592896,735.483887 
z"/>
<path fill="#242E3D" opacity="1.000000" stroke="none" 
	d="
M777.004517,659.175415 
	C779.778748,657.825867 782.549744,656.961182 785.885864,655.920227 
	C785.885864,669.571411 785.885864,681.974426 785.885864,694.689331 
	C783.199402,694.689331 780.443909,694.689331 777.001404,694.689331 
	C777.001404,683.141357 777.001404,671.400879 777.004517,659.175415 
z"/>
<path fill="#343E4C" opacity="1.000000" stroke="none" 
	d="
M747.225464,725.576904 
	C743.027100,724.988708 741.487305,722.269897 742.796265,719.178101 
	C743.570679,717.348877 746.429260,715.627502 748.555420,715.332092 
	C751.524048,714.919617 753.233154,717.073425 753.257996,720.347107 
	C753.287964,724.293579 751.075684,725.559937 747.225464,725.576904 
z"/>
<path fill="#2E3846" opacity="1.000000" stroke="none" 
	d="
M781.168274,640.141724 
	C786.145691,640.277954 787.774841,642.975647 786.864746,647.040588 
	C786.094604,650.480713 783.120300,650.911072 780.158142,650.378479 
	C776.662964,649.749878 775.455444,647.056519 776.425964,644.127747 
	C776.965515,642.499451 779.264954,641.454346 781.168274,640.141724 
z"/>
<path fill="#FDFDFD" opacity="1.000000" stroke="none" 
	d="
M436.690125,555.084351 
	C433.976288,561.648621 429.360443,564.142395 422.721222,563.544739 
	C419.095612,563.218384 415.416504,563.486450 411.004822,563.486450 
	C411.004822,558.912659 411.004822,554.518066 411.004822,550.123474 
	C411.004822,545.643677 411.004822,541.163940 411.004822,536.704529 
	C428.973724,534.582520 438.862762,535.225830 436.690125,555.084351 
z"/>
<path fill="#FDFDFD" opacity="1.000000" stroke="none" 
	d="
M807.002258,548.012085 
	C807.002258,543.878357 807.002258,540.241150 807.002258,536.133179 
	C812.980591,536.133179 818.779602,535.662903 824.468201,536.254456 
	C831.279297,536.962952 834.689148,543.579224 833.822998,552.982483 
	C833.257996,559.116272 827.999512,563.755249 821.567078,563.790527 
	C821.402832,563.791443 821.238342,563.731140 821.073975,563.731018 
	C816.594482,563.727600 812.114990,563.728271 807.002258,563.728271 
	C807.002258,558.366638 807.002258,553.437622 807.002258,548.012085 
z"/>
<path fill="#FCFDFD" opacity="1.000000" stroke="none" 
	d="
M255.473572,271.014954 
	C256.369324,288.085297 240.775177,294.642792 227.570221,293.548065 
	C222.413147,293.120544 217.995438,287.221344 217.107529,280.990540 
	C216.250839,274.978882 219.055374,267.602570 224.172729,265.803284 
	C229.175369,264.044373 234.712158,263.568207 240.063812,263.126373 
	C243.304520,262.858856 246.631226,263.864746 249.933228,264.050018 
	C254.172241,264.287781 256.384308,266.026550 255.473572,271.014954 
z"/>
<path fill="#F8F8F8" opacity="1.000000" stroke="none" 
	d="
M323.144714,546.016113 
	C326.330322,556.672974 329.431244,566.954712 332.647430,577.618713 
	C325.044037,577.618713 318.156311,577.618713 310.743500,577.618713 
	C314.301605,565.703430 317.756317,554.134521 321.452423,541.757141 
	C322.168976,543.488342 322.614471,544.564636 323.144714,546.016113 
z"/>
<path fill="#FCFCFC" opacity="1.000000" stroke="none" 
	d="
M235.866302,537.610718 
	C243.289871,541.134033 245.889236,546.831848 244.095123,555.003235 
	C242.498734,562.274109 238.787704,564.987305 230.416214,564.996765 
	C226.469452,565.001221 222.522705,564.997498 218.170700,564.997498 
	C218.170700,556.372070 218.162766,548.254883 218.181259,540.137634 
	C218.183456,539.180847 218.330688,538.224426 218.464706,536.621887 
	C224.299850,536.899780 229.895355,537.166260 235.866302,537.610718 
z"/>
<path fill="#FAFAFA" opacity="1.000000" stroke="none" 
	d="
M680.572510,687.637634 
	C675.531189,682.901611 674.148987,672.092834 677.602417,666.786926 
	C680.448608,662.414001 690.939209,660.756897 692.190613,665.069275 
	C694.109924,671.682922 693.772949,679.513611 692.189087,686.314453 
	C691.522888,689.175354 685.118469,689.749390 680.572510,687.637634 
z"/>
<path fill="#F8F8F8" opacity="1.000000" stroke="none" 
	d="
M391.218475,663.317688 
	C392.448669,659.739380 393.548523,656.538025 395.106232,652.004089 
	C397.822723,660.330750 400.125122,667.388123 402.568939,674.879028 
	C397.458527,674.879028 392.917969,674.879028 387.734222,674.879028 
	C388.882263,671.050720 389.985199,667.372681 391.218475,663.317688 
z"/>
<path fill="#FCFCFC" opacity="1.000000" stroke="none" 
	d="
M450.154846,678.875427 
	C450.153778,686.511475 448.797943,688.210388 442.628571,688.784668 
	C437.471008,689.264832 433.730316,686.394043 432.813721,680.473694 
	C432.293762,677.115540 432.368591,673.527527 432.934479,670.171021 
	C433.798065,665.048645 436.911469,662.843262 442.022064,662.853943 
	C448.399170,662.867188 450.152069,664.605591 450.154633,670.920654 
	C450.155670,673.412659 450.154816,675.904724 450.154846,678.875427 
z"/>
<path fill="#F8F8F8" opacity="1.000000" stroke="none" 
	d="
M647.734985,663.093567 
	C649.678772,665.736145 651.263855,668.237732 653.446350,671.681885 
	C646.336792,671.681885 640.813477,671.681885 635.287354,671.681885 
	C635.974121,664.408997 640.280701,661.286621 647.734985,663.093567 
z"/>
<path fill="#F8F8F8" opacity="1.000000" stroke="none" 
	d="
M804.525940,668.038086 
	C806.816162,663.410583 810.212708,661.576721 814.854553,662.639404 
	C819.458679,663.693420 820.491882,667.217712 820.429199,671.690125 
	C814.949768,671.690125 809.554016,671.690125 803.885986,671.690125 
	C804.029358,670.603577 804.175110,669.499207 804.525940,668.038086 
z"/>
<path fill="#F8F8F8" opacity="1.000000" stroke="none" 
	d="
M812.481628,737.465942 
	C819.454956,737.845520 821.102051,739.639771 821.357666,746.810791 
	C815.946716,746.810791 810.541077,746.810791 804.779785,746.810791 
	C805.222473,741.975952 807.201477,738.657043 812.481628,737.465942 
z"/>
<path fill="#F8F8F8" opacity="1.000000" stroke="none" 
	d="
M644.155396,740.300293 
	C647.376465,737.275146 651.084778,735.964417 654.354980,738.317505 
	C656.649475,739.968628 657.735107,743.299805 659.938721,746.798645 
	C652.910156,746.798645 647.630676,746.798645 641.335938,746.798645 
	C642.278809,744.525879 643.092529,742.564392 644.155396,740.300293 
z"/>
<path fill="#F8F8F8" opacity="1.000000" stroke="none" 
	d="
M521.598145,678.474609 
	C524.571350,678.623657 527.148865,678.842529 529.630493,679.053223 
	C530.337891,686.548218 528.996094,688.474121 522.477966,689.570618 
	C519.172607,690.126709 516.399780,689.320740 515.688721,685.615967 
	C514.868042,681.340149 516.995605,679.056152 521.598145,678.474609 
z"/>
</svg>