<svg width="32" height="29" viewBox="0 0 32 29" fill="none" xmlns="http://www.w3.org/2000/svg">
<path d="M15.6779 7.2839C15.6042 7.37313 15.5457 7.47928 15.5058 7.59624C15.4659 7.7132 15.4453 7.83865 15.4453 7.96535C15.4453 8.09205 15.4659 8.2175 15.5058 8.33446C15.5457 8.45142 15.6042 8.55757 15.6779 8.6468L19.2947 13.0618H0.786255C0.577727 13.0618 0.37774 13.1629 0.230289 13.3429C0.0828373 13.5229 0 13.767 0 14.0216C0 14.2761 0.0828373 14.5203 0.230289 14.7003C0.37774 14.8803 0.577727 14.9814 0.786255 14.9814H19.279L15.6779 19.3676C15.5315 19.5474 15.4493 19.7907 15.4493 20.0443C15.4493 20.2978 15.5315 20.5411 15.6779 20.7209C15.8252 20.8997 16.0245 21 16.2322 21C16.4399 21 16.6392 20.8997 16.7865 20.7209L21.7871 14.6167C21.8544 14.5378 21.908 14.4432 21.9446 14.3385C21.9811 14.2337 22 14.1211 22 14.0072C22 13.8933 21.9811 13.7807 21.9446 13.6759C21.908 13.5712 21.8544 13.4766 21.7871 13.3977L16.7944 7.2839C16.7213 7.19394 16.6343 7.12254 16.5385 7.07381C16.4427 7.02509 16.34 7 16.2362 7C16.1324 7 16.0296 7.02509 15.9338 7.07381C15.838 7.12254 15.751 7.19394 15.6779 7.2839Z" fill="#4186FF" fill-opacity="0.7"/>
</svg>
